<mxfile host="app.diagrams.net" modified="2021-04-16T06:39:36.980Z" agent="5.0 (Windows NT 10.0; Win64; x64) AppleWebKit/537.36 (KHTML, like Gecko) Chrome/89.0.4389.114 Safari/537.36" etag="7DUSTcUlO2n0-M7sRmj3" version="14.6.0" type="github">
  <diagram id="cQwEYAnqC0Aj_T1h5q0f" name="Page-1">
    <mxGraphModel dx="1422" dy="762" grid="1" gridSize="10" guides="1" tooltips="1" connect="1" arrows="1" fold="1" page="1" pageScale="1" pageWidth="827" pageHeight="1169" math="0" shadow="0">
      <root>
        <mxCell id="0" />
        <mxCell id="1" parent="0" />
        <mxCell id="hebBRnvYn9SBg0xsfD6A-4" value="" style="edgeStyle=orthogonalEdgeStyle;rounded=0;orthogonalLoop=1;jettySize=auto;html=1;" edge="1" parent="1" source="hebBRnvYn9SBg0xsfD6A-1" target="hebBRnvYn9SBg0xsfD6A-2">
          <mxGeometry relative="1" as="geometry" />
        </mxCell>
        <mxCell id="hebBRnvYn9SBg0xsfD6A-1" value="start" style="ellipse;whiteSpace=wrap;html=1;" vertex="1" parent="1">
          <mxGeometry x="310" y="40" width="90" height="60" as="geometry" />
        </mxCell>
        <mxCell id="hebBRnvYn9SBg0xsfD6A-5" value="" style="edgeStyle=orthogonalEdgeStyle;rounded=0;orthogonalLoop=1;jettySize=auto;html=1;" edge="1" parent="1" source="hebBRnvYn9SBg0xsfD6A-2" target="hebBRnvYn9SBg0xsfD6A-3">
          <mxGeometry relative="1" as="geometry" />
        </mxCell>
        <mxCell id="hebBRnvYn9SBg0xsfD6A-2" value="查询中台物流接口" style="rounded=0;whiteSpace=wrap;html=1;" vertex="1" parent="1">
          <mxGeometry x="295" y="160" width="120" height="60" as="geometry" />
        </mxCell>
        <mxCell id="hebBRnvYn9SBg0xsfD6A-3" value="end" style="ellipse;whiteSpace=wrap;html=1;" vertex="1" parent="1">
          <mxGeometry x="312.5" y="290" width="85" height="60" as="geometry" />
        </mxCell>
      </root>
    </mxGraphModel>
  </diagram>
</mxfile>
